<svg xmlns="http://www.w3.org/2000/svg" xmlns:xlink="http://www.w3.org/1999/xlink" width="500" zoomAndPan="magnify" viewBox="0 0 375 374.999991" height="500" preserveAspectRatio="xMidYMid meet" version="1.0"><defs><g/></defs><rect x="-37.5" width="450" fill="#ffffff" y="-37.499999" height="449.999989" fill-opacity="1"/><rect x="-37.5" width="450" fill="#ffffff" y="-37.499999" height="449.999989" fill-opacity="1"/><rect x="-37.5" width="450" fill="#f7f8fa" y="-37.499999" height="449.999989" fill-opacity="1"/><g fill="#22263e" fill-opacity="1"><g transform="translate(125.262617, 190.211157)"><g><path d="M 70.390625 -1.265625 C 70.597656 -1.265625 70.703125 -1.050781 70.703125 -0.625 C 70.703125 -0.207031 70.597656 0 70.390625 0 L 58.515625 0 C 57.378906 0 56.421875 0.0351562 55.640625 0.109375 C 54.867188 0.179688 54.234375 0.21875 53.734375 0.21875 C 52.609375 0.21875 51.640625 -0.046875 50.828125 -0.578125 C 50.015625 -1.109375 49.023438 -2.082031 47.859375 -3.5 C 46.691406 -4.914062 44.625 -7.632812 41.65625 -11.65625 C 41.300781 -12.15625 40.894531 -12.703125 40.4375 -13.296875 C 39.976562 -13.898438 39.46875 -14.59375 38.90625 -15.375 L 25.015625 -34.03125 L 22.6875 -31.6875 L 22.6875 -8.59375 C 22.6875 -6.394531 22.863281 -4.800781 23.21875 -3.8125 C 23.570312 -2.820312 24.257812 -2.148438 25.28125 -1.796875 C 26.300781 -1.441406 27.941406 -1.265625 30.203125 -1.265625 C 30.492188 -1.265625 30.640625 -1.050781 30.640625 -0.625 C 30.640625 -0.207031 30.492188 0 30.203125 0 C 27.878906 0 26.046875 -0.0351562 24.703125 -0.109375 L 16.75 -0.21875 L 8.90625 -0.109375 C 7.488281 -0.0351562 5.582031 0 3.1875 0 C 3.039062 0 2.96875 -0.207031 2.96875 -0.625 C 2.96875 -1.050781 3.039062 -1.265625 3.1875 -1.265625 C 5.445312 -1.265625 7.101562 -1.441406 8.15625 -1.796875 C 9.21875 -2.148438 9.941406 -2.835938 10.328125 -3.859375 C 10.722656 -4.890625 10.921875 -6.46875 10.921875 -8.59375 L 10.921875 -57.65625 C 10.921875 -59.78125 10.722656 -61.335938 10.328125 -62.328125 C 9.941406 -63.316406 9.234375 -64.003906 8.203125 -64.390625 C 7.179688 -64.785156 5.578125 -64.984375 3.390625 -64.984375 C 3.179688 -64.984375 3.078125 -65.191406 3.078125 -65.609375 C 3.078125 -66.035156 3.179688 -66.25 3.390625 -66.25 L 9.015625 -66.140625 C 12.265625 -66.003906 14.84375 -65.9375 16.75 -65.9375 C 18.863281 -65.9375 21.546875 -66.003906 24.796875 -66.140625 L 30.203125 -66.25 C 30.421875 -66.25 30.53125 -66.035156 30.53125 -65.609375 C 30.53125 -65.191406 30.421875 -64.984375 30.203125 -64.984375 C 28.015625 -64.984375 26.40625 -64.769531 25.375 -64.34375 C 24.351562 -63.914062 23.648438 -63.1875 23.265625 -62.15625 C 22.878906 -61.132812 22.6875 -59.566406 22.6875 -57.453125 L 22.6875 -34.984375 L 42.609375 -55.328125 C 44.660156 -57.378906 45.6875 -59.253906 45.6875 -60.953125 C 45.6875 -62.222656 45.117188 -63.210938 43.984375 -63.921875 C 42.859375 -64.628906 41.269531 -64.984375 39.21875 -64.984375 C 39.007812 -64.984375 38.90625 -65.191406 38.90625 -65.609375 C 38.90625 -66.035156 39.007812 -66.25 39.21875 -66.25 L 44.203125 -66.140625 C 47.304688 -66.003906 50.203125 -65.9375 52.890625 -65.9375 C 55.785156 -65.9375 58.789062 -66.003906 61.90625 -66.140625 L 66.671875 -66.25 C 66.878906 -66.25 66.984375 -66.035156 66.984375 -65.609375 C 66.984375 -65.191406 66.878906 -64.984375 66.671875 -64.984375 C 63.421875 -64.984375 59.851562 -64.046875 55.96875 -62.171875 C 52.082031 -60.296875 48.550781 -57.804688 45.375 -54.703125 L 33.390625 -42.5 L 49.078125 -21.3125 C 53.671875 -14.738281 57.113281 -10.085938 59.40625 -7.359375 C 61.707031 -4.640625 63.5625 -2.941406 64.96875 -2.265625 C 66.382812 -1.597656 68.191406 -1.265625 70.390625 -1.265625 Z M 70.390625 -1.265625 "/></g></g></g><g fill="#22263e" fill-opacity="1"><g transform="translate(177.809026, 227.568758)"><g><path d="M 79.78125 -1.3125 C 80 -1.3125 80.109375 -1.09375 80.109375 -0.65625 C 80.109375 -0.21875 80 0 79.78125 0 C 77.238281 0 75.207031 -0.0351562 73.6875 -0.109375 L 65.296875 -0.21875 L 55.484375 -0.109375 C 54.171875 -0.0351562 52.390625 0 50.140625 0 C 49.921875 0 49.8125 -0.21875 49.8125 -0.65625 C 49.8125 -1.09375 49.921875 -1.3125 50.140625 -1.3125 C 52.828125 -1.3125 54.785156 -1.488281 56.015625 -1.84375 C 57.253906 -2.207031 58.09375 -2.898438 58.53125 -3.921875 C 58.96875 -4.941406 59.1875 -6.578125 59.1875 -8.828125 L 59.1875 -33.90625 L 23.984375 -33.90625 L 23.984375 -8.828125 C 23.984375 -6.648438 24.195312 -5.03125 24.625 -3.96875 C 25.0625 -2.914062 25.898438 -2.207031 27.140625 -1.84375 C 28.378906 -1.488281 30.34375 -1.3125 33.03125 -1.3125 C 33.175781 -1.3125 33.25 -1.09375 33.25 -0.65625 C 33.25 -0.21875 33.175781 0 33.03125 0 C 30.488281 0 28.453125 -0.0351562 26.921875 -0.109375 L 17.4375 -0.21875 L 9.265625 -0.109375 C 7.804688 -0.0351562 5.804688 0 3.265625 0 C 3.117188 0 3.046875 -0.21875 3.046875 -0.65625 C 3.046875 -1.09375 3.117188 -1.3125 3.265625 -1.3125 C 5.804688 -1.3125 7.660156 -1.488281 8.828125 -1.84375 C 9.992188 -2.207031 10.789062 -2.914062 11.21875 -3.96875 C 11.65625 -5.03125 11.875 -6.648438 11.875 -8.828125 L 11.875 -59.296875 C 11.875 -61.472656 11.65625 -63.070312 11.21875 -64.09375 C 10.789062 -65.113281 10.007812 -65.820312 8.875 -66.21875 C 7.75 -66.613281 5.953125 -66.8125 3.484375 -66.8125 C 3.265625 -66.8125 3.15625 -67.03125 3.15625 -67.46875 C 3.15625 -67.90625 3.265625 -68.125 3.484375 -68.125 L 9.375 -68.015625 C 12.71875 -67.867188 15.40625 -67.796875 17.4375 -67.796875 C 20.195312 -67.796875 23.394531 -67.867188 27.03125 -68.015625 L 33.03125 -68.125 C 33.175781 -68.125 33.25 -67.90625 33.25 -67.46875 C 33.25 -67.03125 33.175781 -66.8125 33.03125 -66.8125 C 30.414062 -66.8125 28.488281 -66.59375 27.25 -66.15625 C 26.007812 -65.726562 25.15625 -64.984375 24.6875 -63.921875 C 24.21875 -62.867188 23.984375 -61.253906 23.984375 -59.078125 L 23.984375 -36.953125 L 59.1875 -36.953125 L 59.1875 -59.078125 C 59.1875 -61.253906 58.96875 -62.867188 58.53125 -63.921875 C 58.09375 -64.984375 57.253906 -65.726562 56.015625 -66.15625 C 54.785156 -66.59375 52.828125 -66.8125 50.140625 -66.8125 C 49.921875 -66.8125 49.8125 -67.03125 49.8125 -67.46875 C 49.8125 -67.90625 49.921875 -68.125 50.140625 -68.125 L 55.484375 -68.015625 C 59.117188 -67.867188 62.390625 -67.796875 65.296875 -67.796875 C 67.253906 -67.796875 70.050781 -67.867188 73.6875 -68.015625 L 79.78125 -68.125 C 80 -68.125 80.109375 -67.90625 80.109375 -67.46875 C 80.109375 -67.03125 80 -66.8125 79.78125 -66.8125 C 77.3125 -66.8125 75.476562 -66.613281 74.28125 -66.21875 C 73.082031 -65.820312 72.28125 -65.113281 71.875 -64.09375 C 71.476562 -63.070312 71.28125 -61.472656 71.28125 -59.296875 L 71.28125 -8.828125 C 71.28125 -6.648438 71.476562 -5.03125 71.875 -3.96875 C 72.28125 -2.914062 73.0625 -2.207031 74.21875 -1.84375 C 75.382812 -1.488281 77.238281 -1.3125 79.78125 -1.3125 Z M 79.78125 -1.3125 "/></g></g></g><g fill="#060644" fill-opacity="1"><g transform="translate(103.201793, 255.476628)"><g><path d="M 5.359375 -4.6875 L 3.578125 -2.859375 L 3.578125 0 L 1.5 0 L 1.5 -11.203125 L 3.578125 -11.203125 L 3.578125 -5.453125 L 9.125 -11.203125 L 11.453125 -11.203125 L 6.75 -6.1875 L 11.75 0 L 9.3125 0 Z M 5.359375 -4.6875 "/></g></g></g><g fill="#060644" fill-opacity="1"><g transform="translate(118.671019, 255.476628)"><g><path d="M 8.828125 0 L 6.546875 -3.28125 C 6.453125 -3.269531 6.304688 -3.265625 6.109375 -3.265625 L 3.578125 -3.265625 L 3.578125 0 L 1.5 0 L 1.5 -11.203125 L 6.109375 -11.203125 C 7.078125 -11.203125 7.921875 -11.039062 8.640625 -10.71875 C 9.367188 -10.394531 9.921875 -9.9375 10.296875 -9.34375 C 10.679688 -8.75 10.875 -8.039062 10.875 -7.21875 C 10.875 -6.375 10.664062 -5.644531 10.25 -5.03125 C 9.84375 -4.425781 9.257812 -3.976562 8.5 -3.6875 L 11.078125 0 Z M 8.78125 -7.21875 C 8.78125 -7.925781 8.546875 -8.472656 8.078125 -8.859375 C 7.609375 -9.242188 6.921875 -9.4375 6.015625 -9.4375 L 3.578125 -9.4375 L 3.578125 -4.96875 L 6.015625 -4.96875 C 6.921875 -4.96875 7.609375 -5.160156 8.078125 -5.546875 C 8.546875 -5.941406 8.78125 -6.5 8.78125 -7.21875 Z M 8.78125 -7.21875 "/></g></g></g><g fill="#060644" fill-opacity="1"><g transform="translate(134.172244, 255.476628)"><g><path d="M 1.5 -11.203125 L 3.578125 -11.203125 L 3.578125 0 L 1.5 0 Z M 1.5 -11.203125 "/></g></g></g><g fill="#060644" fill-opacity="1"><g transform="translate(143.083045, 255.476628)"><g><path d="M 4.96875 0.15625 C 4.113281 0.15625 3.28125 0.0351562 2.46875 -0.203125 C 1.664062 -0.453125 1.03125 -0.78125 0.5625 -1.1875 L 1.28125 -2.796875 C 1.738281 -2.429688 2.300781 -2.132812 2.96875 -1.90625 C 3.632812 -1.675781 4.300781 -1.5625 4.96875 -1.5625 C 5.800781 -1.5625 6.421875 -1.695312 6.828125 -1.96875 C 7.242188 -2.238281 7.453125 -2.59375 7.453125 -3.03125 C 7.453125 -3.34375 7.335938 -3.601562 7.109375 -3.8125 C 6.878906 -4.019531 6.585938 -4.179688 6.234375 -4.296875 C 5.890625 -4.421875 5.410156 -4.554688 4.796875 -4.703125 C 3.941406 -4.910156 3.25 -5.113281 2.71875 -5.3125 C 2.195312 -5.507812 1.742188 -5.820312 1.359375 -6.25 C 0.984375 -6.6875 0.796875 -7.273438 0.796875 -8.015625 C 0.796875 -8.628906 0.960938 -9.191406 1.296875 -9.703125 C 1.640625 -10.210938 2.148438 -10.613281 2.828125 -10.90625 C 3.503906 -11.207031 4.332031 -11.359375 5.3125 -11.359375 C 6 -11.359375 6.671875 -11.269531 7.328125 -11.09375 C 7.984375 -10.925781 8.554688 -10.6875 9.046875 -10.375 L 8.390625 -8.75 C 7.890625 -9.039062 7.375 -9.257812 6.84375 -9.40625 C 6.3125 -9.550781 5.796875 -9.625 5.296875 -9.625 C 4.472656 -9.625 3.859375 -9.484375 3.453125 -9.203125 C 3.054688 -8.929688 2.859375 -8.566406 2.859375 -8.109375 C 2.859375 -7.785156 2.972656 -7.523438 3.203125 -7.328125 C 3.429688 -7.128906 3.722656 -6.96875 4.078125 -6.84375 C 4.429688 -6.726562 4.910156 -6.597656 5.515625 -6.453125 C 6.347656 -6.253906 7.03125 -6.050781 7.5625 -5.84375 C 8.101562 -5.632812 8.5625 -5.316406 8.9375 -4.890625 C 9.3125 -4.460938 9.5 -3.890625 9.5 -3.171875 C 9.5 -2.546875 9.332031 -1.984375 9 -1.484375 C 8.664062 -0.984375 8.15625 -0.582031 7.46875 -0.28125 C 6.789062 0.0078125 5.957031 0.15625 4.96875 0.15625 Z M 4.96875 0.15625 "/></g></g></g><g fill="#060644" fill-opacity="1"><g transform="translate(156.952663, 255.476628)"><g/></g></g><g fill="#060644" fill-opacity="1"><g transform="translate(165.175632, 255.476628)"><g><path d="M 11.453125 -11.203125 L 11.453125 0 L 9.375 0 L 9.375 -4.796875 L 3.578125 -4.796875 L 3.578125 0 L 1.5 0 L 1.5 -11.203125 L 3.578125 -11.203125 L 3.578125 -6.578125 L 9.375 -6.578125 L 9.375 -11.203125 Z M 11.453125 -11.203125 "/></g></g></g><g fill="#060644" fill-opacity="1"><g transform="translate(181.94055, 255.476628)"><g><path d="M 11.75 -11.203125 L 6.859375 0 L 4.8125 0 L -0.078125 -11.203125 L 2.171875 -11.203125 L 5.90625 -2.5625 L 9.65625 -11.203125 Z M 11.75 -11.203125 "/></g></g></g><g fill="#060644" fill-opacity="1"><g transform="translate(197.40978, 255.476628)"><g><path d="M 8.765625 -2.59375 L 3.171875 -2.59375 L 2.0625 0 L -0.078125 0 L 4.953125 -11.203125 L 7.015625 -11.203125 L 12.0625 0 L 9.890625 0 Z M 8.078125 -4.21875 L 5.96875 -9.125 L 3.875 -4.21875 Z M 8.078125 -4.21875 "/></g></g></g><g fill="#060644" fill-opacity="1"><g transform="translate(213.198929, 255.476628)"><g><path d="M 3.78125 -9.4375 L 0.0625 -9.4375 L 0.0625 -11.203125 L 9.5625 -11.203125 L 9.5625 -9.4375 L 5.859375 -9.4375 L 5.859375 0 L 3.78125 0 Z M 3.78125 -9.4375 "/></g></g></g><g fill="#060644" fill-opacity="1"><g transform="translate(226.636649, 255.476628)"><g><path d="M 3.78125 -9.4375 L 0.0625 -9.4375 L 0.0625 -11.203125 L 9.5625 -11.203125 L 9.5625 -9.4375 L 5.859375 -9.4375 L 5.859375 0 L 3.78125 0 Z M 3.78125 -9.4375 "/></g></g></g><g fill="#060644" fill-opacity="1"><g transform="translate(240.07437, 255.476628)"><g><path d="M 6.3125 0.15625 C 4.769531 0.15625 3.566406 -0.273438 2.703125 -1.140625 C 1.835938 -2.015625 1.40625 -3.257812 1.40625 -4.875 L 1.40625 -11.203125 L 3.484375 -11.203125 L 3.484375 -4.953125 C 3.484375 -2.753906 4.4375 -1.65625 6.34375 -1.65625 C 8.226562 -1.65625 9.171875 -2.753906 9.171875 -4.953125 L 9.171875 -11.203125 L 11.21875 -11.203125 L 11.21875 -4.875 C 11.21875 -3.257812 10.785156 -2.015625 9.921875 -1.140625 C 9.066406 -0.273438 7.863281 0.15625 6.3125 0.15625 Z M 6.3125 0.15625 "/></g></g></g><g fill="#060644" fill-opacity="1"><g transform="translate(256.503369, 255.476628)"><g><path d="M 11.796875 0 L 11.78125 -7.421875 L 8.09375 -1.28125 L 7.171875 -1.28125 L 3.484375 -7.328125 L 3.484375 0 L 1.5 0 L 1.5 -11.203125 L 3.21875 -11.203125 L 7.65625 -3.78125 L 12.03125 -11.203125 L 13.75 -11.203125 L 13.765625 0 Z M 11.796875 0 "/></g></g></g></svg>